
<svg width="100pt" height="100pt" version="1.1" viewBox="0 0 100 100" xmlns="http://www.w3.org/2000/svg">
    <path d="m46.625 29.293s-33.18-20.887-28.656 15.805c0.40234 3.25 15.488-13.707 23.902-6.2266 3.25 2.8945-14.289 2.1641-18.453 5.4766-4.1641 3.3086-7.7422 8.5859 12.301 21.832 1.3125 0.86719 8.9023-18.805 14.02-14.488 3.7969 3.1992-13.531 10.098-10.934 17.441 0.41016 1.1602 6.5781 3.6172 8.0039 5.0898 1.4258 1.4766 1.9727-6.9414 9.6133-9.2812 2.5195-0.76953-6.3789 10.668-6.3789 10.668s11.445 1.5273 17.84 15.77c0 0 2.6836-14.68 5.625-17.773 1.3555-1.4258-9.7344-6.1484-8.1992-7.7539 2.4688-2.5742 10.492 4.3477 10.609 4.5938 0.11719 0.24609-0.89844-8.3398 3.4961-13.465 0.59375-0.6875-6.0547-5.9023-9.9492-7.6016-3.8945-1.6992-9.5234-1.0117-9.2578-2.5781 0.26953-1.5664 7.7422-0.71094 10.066 1.082 2.3242 1.7891 7.7891 6.8398 8.9688 5.1055 1.1797-1.7305-0.67578-10.352 0.65625-17.016 0.53125-2.6484-14.57-7.082-20.715-3.2617-0.70703 0.44141-2.7148-0.10938-2.3438-0.70703s4.1641-3.4297 7.9648-3.0625c3.7969 0.36719 12.629-0.44141 14.938 2.3125 2.3086 2.7578-6.6094-26.516-23.039-18.82-5.9688 2.8008-5.3867 10.902-10.078 16.859z" fill="#425946"/>
</svg>
